<svg xmlns="http://www.w3.org/2000/svg" width="640" height="420" font-family="sans-serif" font-size="11">
<rect width="640" height="420" fill="white"/>
<text x="320" y="16" text-anchor="middle" font-size="13">k=3: running max |R_k(L_k+N)| (= eq:HN LHS), block (W_2, W_3]</text>
<line x1="56.0" y1="376" x2="56.0" y2="28" stroke="#eee"/>
<text x="56.0" y="390" text-anchor="middle">2^0</text>
<line x1="258.3" y1="376" x2="258.3" y2="28" stroke="#eee"/>
<text x="258.3" y="390" text-anchor="middle">2^1</text>
<line x1="460.7" y1="376" x2="460.7" y2="28" stroke="#eee"/>
<text x="460.7" y="390" text-anchor="middle">2^2</text>
<line x1="56" y1="323.4" x2="624" y2="323.4" stroke="#eee"/>
<text x="50" y="327.4" text-anchor="end">2^0</text>
<line x1="56" y1="218.2" x2="624" y2="218.2" stroke="#eee"/>
<text x="50" y="222.2" text-anchor="end">2^1</text>
<line x1="56" y1="112.9" x2="624" y2="112.9" stroke="#eee"/>
<text x="50" y="116.9" text-anchor="end">2^2</text>
<rect x="56" y="28" width="568" height="348" fill="none" stroke="#999"/>
<text x="320" y="412" text-anchor="middle">N</text>
<text x="14" y="210" text-anchor="middle" transform="rotate(-90 14 210)">max |R|</text>
<line x1="56.0" y1="175.7" x2="624.0" y2="28.0" stroke="#2980b9" stroke-dasharray="5,4"/>
<text x="64" y="42" fill="#2980b9">(L_k+N)^1/2 (pinned eq:HN scale)</text>
<line x1="56.0" y1="323.4" x2="624.0" y2="175.7" stroke="#27ae60" stroke-dasharray="5,4"/>
<text x="64" y="56" fill="#27ae60">N^1/2 (in-block scale)</text>
<polyline points="56.0,323.4 624.0,218.2" fill="none" stroke="#c0392b" stroke-width="1.5"/>
<text x="64" y="70" fill="#c0392b">runmax |R_3|</text>
</svg>