<svg xmlns="http://www.w3.org/2000/svg" width="640" height="420" font-family="sans-serif" font-size="11">
<rect width="640" height="420" fill="white"/>
<text x="320" y="16" text-anchor="middle" font-size="13">k=3: |b_3(r)| by conductor q = 900/gcd(r,900)</text>
<line x1="56.0" y1="376" x2="56.0" y2="28" stroke="#eee"/>
<text x="56.0" y="390" text-anchor="middle">2^1</text>
<line x1="184.9" y1="376" x2="184.9" y2="28" stroke="#eee"/>
<text x="184.9" y="390" text-anchor="middle">2^3</text>
<line x1="313.8" y1="376" x2="313.8" y2="28" stroke="#eee"/>
<text x="313.8" y="390" text-anchor="middle">2^5</text>
<line x1="442.7" y1="376" x2="442.7" y2="28" stroke="#eee"/>
<text x="442.7" y="390" text-anchor="middle">2^7</text>
<line x1="571.6" y1="376" x2="571.6" y2="28" stroke="#eee"/>
<text x="571.6" y="390" text-anchor="middle">2^9</text>
<line x1="56" y1="356.6" x2="624" y2="356.6" stroke="#eee"/>
<text x="50" y="360.6" text-anchor="end">2^-14</text>
<line x1="56" y1="304.4" x2="624" y2="304.4" stroke="#eee"/>
<text x="50" y="308.4" text-anchor="end">2^-12</text>
<line x1="56" y1="252.2" x2="624" y2="252.2" stroke="#eee"/>
<text x="50" y="256.2" text-anchor="end">2^-10</text>
<line x1="56" y1="200.0" x2="624" y2="200.0" stroke="#eee"/>
<text x="50" y="204.0" text-anchor="end">2^-8</text>
<line x1="56" y1="147.8" x2="624" y2="147.8" stroke="#eee"/>
<text x="50" y="151.8" text-anchor="end">2^-6</text>
<line x1="56" y1="95.7" x2="624" y2="95.7" stroke="#eee"/>
<text x="50" y="99.7" text-anchor="end">2^-4</text>
<line x1="56" y1="43.5" x2="624" y2="43.5" stroke="#eee"/>
<text x="50" y="47.5" text-anchor="end">2^-2</text>
<rect x="56" y="28" width="568" height="348" fill="none" stroke="#999"/>
<text x="320" y="412" text-anchor="middle">conductor q</text>
<text x="14" y="210" text-anchor="middle" transform="rotate(-90 14 210)">|b(r)|</text>
<polyline points="56.0,49.4 93.7,82.3 93.7,82.3 120.4,90.8 120.4,90.8 141.2,117.3 141.2,117.3 141.2,107.9 141.2,107.9 158.1,41.0 158.1,41.0 195.8,151.6 195.8,151.6 195.8,139.8 195.8,139.8 195.8,130.1 195.8,130.1 205.6,71.1 205.6,71.1 205.6,71.1 205.6,71.1 222.6,84.0 222.6,84.0 222.6,80.8 222.6,80.8 243.3,107.4 243.3,107.4 243.3,103.6 243.3,103.6 243.3,102.5 243.3,102.5 243.3,102.4 243.3,102.4 260.3,103.4 260.3,103.4 260.3,102.5 260.3,102.5 260.3,99.0 260.3,99.0 270.1,115.1 270.1,115.1 270.1,113.8 270.1,113.8 270.1,112.4 270.1,112.4 270.1,107.2 270.1,107.2 290.8,302.5 290.8,302.5 290.8,203.1 290.8,203.1 290.8,198.0 290.8,198.0 290.8,195.7 290.8,195.7 290.8,187.4 290.8,187.4 290.8,184.7 290.8,184.7 290.8,169.7 290.8,169.7 290.8,159.6 290.8,159.6 290.8,151.2 290.8,151.2 290.8,150.2 290.8,150.2 307.8,65.6 307.8,65.6 307.8,65.0 307.8,65.0 307.8,64.7 307.8,64.7 307.8,64.1 307.8,64.1 324.7,156.9 324.7,156.9 324.7,154.5 324.7,154.5 324.7,146.0 324.7,146.0 324.7,141.7 324.7,141.7 324.7,132.2 324.7,132.2 324.7,128.0 324.7,128.0 345.5,188.6 345.5,188.6 345.5,184.0 345.5,184.0 345.5,173.5 345.5,173.5 345.5,172.9 345.5,172.9 345.5,166.0 345.5,166.0 345.5,158.8 345.5,158.8 345.5,155.1 345.5,155.1 345.5,153.1 345.5,153.1 345.5,151.8 345.5,151.8 345.5,151.5 345.5,151.5 345.5,151.2 345.5,151.2 345.5,148.1 345.5,148.1 355.3,167.0 355.3,167.0 355.3,165.6 355.3,165.6 355.3,157.9 355.3,157.9 355.3,157.9 355.3,157.9 355.3,154.8 355.3,154.8 355.3,152.6 355.3,152.6 355.3,150.2 355.3,150.2 355.3,141.8 355.3,141.8 355.3,141.2 355.3,141.2 355.3,138.7 355.3,138.7 372.2,110.4 372.2,110.4 372.2,109.8 372.2,109.8 372.2,108.3 372.2,108.3 372.2,107.8 372.2,107.8 372.2,107.8 372.2,107.8 372.2,107.0 372.2,107.0 372.2,104.8 372.2,104.8 372.2,102.2 372.2,102.2 393.0,230.9 393.0,230.9 393.0,203.9 393.0,203.9 393.0,198.9 393.0,198.9 393.0,194.9 393.0,194.9 393.0,189.2 393.0,189.2 393.0,184.6 393.0,184.6 393.0,184.0 393.0,184.0 393.0,181.9 393.0,181.9 393.0,178.9 393.0,178.9 393.0,176.2 393.0,176.2 393.0,175.7 393.0,175.7 393.0,175.2 393.0,175.2 393.0,170.8 393.0,170.8 393.0,170.5 393.0,170.5 393.0,166.3 393.0,166.3 393.0,165.2 393.0,165.2 393.0,163.3 393.0,163.3 393.0,158.6 393.0,158.6 393.0,155.2 393.0,155.2 393.0,152.9 393.0,152.9 409.9,134.4 409.9,134.4 409.9,133.4 409.9,133.4 409.9,131.6 409.9,131.6 409.9,130.1 409.9,130.1 409.9,128.1 409.9,128.1 409.9,127.2 409.9,127.2 409.9,125.8 409.9,125.8 409.9,125.5 409.9,125.5 409.9,123.6 409.9,123.6 409.9,122.2 409.9,122.2 409.9,120.1 409.9,120.1 409.9,119.1 409.9,119.1 419.7,282.6 419.7,282.6 419.7,241.2 419.7,241.2 419.7,230.8 419.7,230.8 419.7,214.3 419.7,214.3 419.7,210.9 419.7,210.9 419.7,198.3 419.7,198.3 419.7,196.9 419.7,196.9 419.7,196.8 419.7,196.8 419.7,192.6 419.7,192.6 419.7,188.2 419.7,188.2 419.7,180.8 419.7,180.8 419.7,173.8 419.7,173.8 419.7,172.3 419.7,172.3 419.7,172.0 419.7,172.0 419.7,171.3 419.7,171.3 419.7,169.1 419.7,169.1 419.7,159.4 419.7,159.4 419.7,159.3 419.7,159.3 419.7,154.1 419.7,154.1 419.7,148.7 419.7,148.7 457.4,161.6 457.4,161.6 457.4,161.2 457.4,161.2 457.4,158.4 457.4,158.4 457.4,157.9 457.4,157.9 457.4,157.0 457.4,157.0 457.4,156.9 457.4,156.9 457.4,156.7 457.4,156.7 457.4,155.1 457.4,155.1 457.4,153.5 457.4,153.5 457.4,149.5 457.4,149.5 457.4,147.5 457.4,147.5 457.4,146.2 457.4,146.2 457.4,145.2 457.4,145.2 457.4,143.5 457.4,143.5 457.4,143.0 457.4,143.0 457.4,138.1 457.4,138.1 457.4,137.4 457.4,137.4 457.4,136.8 457.4,136.8 457.4,135.8 457.4,135.8 457.4,133.9 457.4,133.9 474.4,217.1 474.4,217.1 474.4,207.8 474.4,207.8 474.4,192.4 474.4,192.4 474.4,190.7 474.4,190.7 474.4,187.5 474.4,187.5 474.4,185.3 474.4,185.3 474.4,178.0 474.4,178.0 474.4,169.4 474.4,169.4 474.4,168.5 474.4,168.5 474.4,166.6 474.4,166.6 474.4,162.1 474.4,162.1 474.4,161.5 474.4,161.5 474.4,160.2 474.4,160.2 474.4,160.1 474.4,160.1 474.4,159.7 474.4,159.7 474.4,159.7 474.4,159.7 474.4,158.4 474.4,158.4 474.4,157.9 474.4,157.9 474.4,157.6 474.4,157.6 474.4,157.4 474.4,157.4 474.4,153.4 474.4,153.4 474.4,150.4 474.4,150.4 474.4,148.5 474.4,148.5 474.4,147.7 474.4,147.7 495.1,289.1 495.1,289.1 495.1,263.3 495.1,263.3 495.1,245.9 495.1,245.9 495.1,238.1 495.1,238.1 495.1,237.6 495.1,237.6 495.1,237.5 495.1,237.5 495.1,232.5 495.1,232.5 495.1,229.5 495.1,229.5 495.1,226.5 495.1,226.5 495.1,225.1 495.1,225.1 495.1,222.3 495.1,222.3 495.1,205.3 495.1,205.3 495.1,204.4 495.1,204.4 495.1,202.8 495.1,202.8 495.1,200.1 495.1,200.1 495.1,200.0 495.1,200.0 495.1,199.9 495.1,199.9 495.1,199.8 495.1,199.8 495.1,196.5 495.1,196.5 495.1,195.6 495.1,195.6 495.1,195.4 495.1,195.4 495.1,195.4 495.1,195.4 495.1,189.5 495.1,189.5 495.1,189.3 495.1,189.3 495.1,189.2 495.1,189.2 495.1,188.7 495.1,188.7 495.1,188.2 495.1,188.2 495.1,188.1 495.1,188.1 495.1,188.0 495.1,188.0 495.1,186.0 495.1,186.0 495.1,185.0 495.1,185.0 495.1,184.7 495.1,184.7 495.1,183.8 495.1,183.8 495.1,183.5 495.1,183.5 495.1,182.6 495.1,182.6 495.1,181.5 495.1,181.5 495.1,181.4 495.1,181.4 495.1,181.4 495.1,181.4 495.1,180.6 495.1,180.6 495.1,179.9 495.1,179.9 495.1,179.8 495.1,179.8 495.1,179.3 495.1,179.3 495.1,179.2 495.1,179.2 495.1,178.2 495.1,178.2 495.1,178.0 495.1,178.0 495.1,177.6 495.1,177.6 495.1,176.0 495.1,176.0 495.1,175.8 495.1,175.8 495.1,172.4 495.1,172.4 495.1,172.1 495.1,172.1 495.1,171.7 495.1,171.7 495.1,170.8 495.1,170.8 495.1,169.3 495.1,169.3 495.1,168.7 495.1,168.7 495.1,167.9 495.1,167.9 495.1,166.1 495.1,166.1 495.1,163.1 495.1,163.1 495.1,158.8 495.1,158.8 495.1,157.2 495.1,157.2 495.1,156.5 495.1,156.5 521.9,291.7 521.9,291.7 521.9,224.9 521.9,224.9 521.9,213.8 521.9,213.8 521.9,212.5 521.9,212.5 521.9,211.2 521.9,211.2 521.9,204.3 521.9,204.3 521.9,192.0 521.9,192.0 521.9,190.8 521.9,190.8 521.9,189.0 521.9,189.0 521.9,187.7 521.9,187.7 521.9,187.3 521.9,187.3 521.9,185.0 521.9,185.0 521.9,184.9 521.9,184.9 521.9,184.6 521.9,184.6 521.9,184.5 521.9,184.5 521.9,183.3 521.9,183.3 521.9,183.2 521.9,183.2 521.9,182.9 521.9,182.9 521.9,182.4 521.9,182.4 521.9,182.3 521.9,182.3 521.9,182.0 521.9,182.0 521.9,178.4 521.9,178.4 521.9,177.5 521.9,177.5 521.9,174.9 521.9,174.9 521.9,170.5 521.9,170.5 521.9,169.7 521.9,169.7 521.9,168.8 521.9,168.8 521.9,168.8 521.9,168.8 521.9,166.4 521.9,166.4 521.9,165.0 521.9,165.0 521.9,165.0 521.9,165.0 521.9,164.4 521.9,164.4 521.9,163.7 521.9,163.7 521.9,162.5 521.9,162.5 521.9,160.3 521.9,160.3 521.9,160.0 521.9,160.0 521.9,159.3 521.9,159.3 521.9,158.0 521.9,158.0 521.9,157.3 521.9,157.3 521.9,156.6 521.9,156.6 559.6,319.7 559.6,319.7 559.6,230.3 559.6,230.3 559.6,215.5 559.6,215.5 559.6,215.2 559.6,215.2 559.6,214.8 559.6,214.8 559.6,214.8 559.6,214.8 559.6,205.0 559.6,205.0 559.6,204.6 559.6,204.6 559.6,204.5 559.6,204.5 559.6,204.2 559.6,204.2 559.6,203.6 559.6,203.6 559.6,196.3 559.6,196.3 559.6,195.8 559.6,195.8 559.6,195.7 559.6,195.7 559.6,195.3 559.6,195.3 559.6,193.5 559.6,193.5 559.6,192.9 559.6,192.9 559.6,192.2 559.6,192.2 559.6,191.7 559.6,191.7 559.6,190.8 559.6,190.8 559.6,189.8 559.6,189.8 559.6,189.7 559.6,189.7 559.6,189.2 559.6,189.2 559.6,187.3 559.6,187.3 559.6,187.0 559.6,187.0 559.6,186.5 559.6,186.5 559.6,184.9 559.6,184.9 559.6,183.3 559.6,183.3 559.6,183.2 559.6,183.2 559.6,181.8 559.6,181.8 559.6,181.5 559.6,181.5 559.6,181.4 559.6,181.4 559.6,179.3 559.6,179.3 559.6,177.9 559.6,177.9 559.6,176.0 559.6,176.0 559.6,175.4 559.6,175.4 559.6,175.1 559.6,175.1 559.6,174.8 559.6,174.8 559.6,173.9 559.6,173.9 559.6,173.7 559.6,173.7 559.6,173.7 559.6,173.7 559.6,173.7 559.6,173.7 559.6,172.3 559.6,172.3 559.6,172.0 559.6,172.0 559.6,171.8 559.6,171.8 559.6,171.4 559.6,171.4 559.6,170.6 559.6,170.6 559.6,168.6 559.6,168.6 559.6,168.5 559.6,168.5 559.6,168.4 559.6,168.4 559.6,167.9 559.6,167.9 559.6,166.3 559.6,166.3 559.6,165.9 559.6,165.9 559.6,165.6 559.6,165.6 559.6,165.2 559.6,165.2 559.6,164.8 559.6,164.8 559.6,163.9 559.6,163.9 559.6,160.2 559.6,160.2 559.6,160.2 559.6,160.2 559.6,160.1 559.6,160.1 624.0,363.0 624.0,363.0 624.0,253.6 624.0,253.6 624.0,248.2 624.0,248.2 624.0,247.0 624.0,247.0 624.0,245.6 624.0,245.6 624.0,242.7 624.0,242.7 624.0,241.3 624.0,241.3 624.0,237.4 624.0,237.4 624.0,234.8 624.0,234.8 624.0,234.0 624.0,234.0 624.0,232.1 624.0,232.1 624.0,229.4 624.0,229.4 624.0,229.1 624.0,229.1 624.0,228.8 624.0,228.8 624.0,227.2 624.0,227.2 624.0,227.2 624.0,227.2 624.0,218.4 624.0,218.4 624.0,217.4 624.0,217.4 624.0,213.1 624.0,213.1 624.0,211.4 624.0,211.4 624.0,211.1 624.0,211.1 624.0,209.0 624.0,209.0 624.0,209.0 624.0,209.0 624.0,207.6 624.0,207.6 624.0,206.9 624.0,206.9 624.0,203.6 624.0,203.6 624.0,202.5 624.0,202.5 624.0,202.3 624.0,202.3 624.0,201.8 624.0,201.8 624.0,201.4 624.0,201.4 624.0,201.3 624.0,201.3 624.0,200.6 624.0,200.6 624.0,200.2 624.0,200.2 624.0,197.4 624.0,197.4 624.0,196.9 624.0,196.9 624.0,196.4 624.0,196.4 624.0,195.5 624.0,195.5 624.0,195.1 624.0,195.1 624.0,194.5 624.0,194.5 624.0,193.8 624.0,193.8 624.0,192.3 624.0,192.3 624.0,192.2 624.0,192.2 624.0,192.0 624.0,192.0 624.0,191.9 624.0,191.9 624.0,191.8 624.0,191.8 624.0,191.7 624.0,191.7 624.0,191.5 624.0,191.5 624.0,191.5 624.0,191.5 624.0,190.8 624.0,190.8 624.0,190.8 624.0,190.8 624.0,190.3 624.0,190.3 624.0,189.9 624.0,189.9 624.0,189.2 624.0,189.2 624.0,189.0 624.0,189.0 624.0,188.2 624.0,188.2 624.0,188.1 624.0,188.1 624.0,187.3 624.0,187.3 624.0,187.2 624.0,187.2 624.0,187.2 624.0,187.2 624.0,187.1 624.0,187.1 624.0,186.3 624.0,186.3 624.0,185.9 624.0,185.9 624.0,185.1 624.0,185.1 624.0,184.8 624.0,184.8 624.0,184.0 624.0,184.0 624.0,183.2 624.0,183.2 624.0,183.0 624.0,183.0 624.0,182.4 624.0,182.4 624.0,182.4 624.0,182.4 624.0,182.3 624.0,182.3 624.0,181.7 624.0,181.7 624.0,181.6 624.0,181.6 624.0,181.4 624.0,181.4 624.0,181.2 624.0,181.2 624.0,180.7 624.0,180.7 624.0,180.1 624.0,180.1 624.0,180.0 624.0,180.0 624.0,179.4 624.0,179.4 624.0,179.2 624.0,179.2 624.0,178.8 624.0,178.8 624.0,178.7 624.0,178.7 624.0,178.6 624.0,178.6 624.0,178.5 624.0,178.5 624.0,178.3 624.0,178.3 624.0,178.3 624.0,178.3 624.0,178.2 624.0,178.2 624.0,177.6 624.0,177.6 624.0,177.6 624.0,177.6 624.0,176.5 624.0,176.5 624.0,175.7 624.0,175.7 624.0,175.6 624.0,175.6 624.0,175.5 624.0,175.5 624.0,175.2 624.0,175.2 624.0,175.0 624.0,175.0 624.0,174.6 624.0,174.6 624.0,174.4 624.0,174.4 624.0,173.6 624.0,173.6 624.0,173.3 624.0,173.3 624.0,172.2 624.0,172.2 624.0,171.9 624.0,171.9 624.0,171.8 624.0,171.8 624.0,171.3 624.0,171.3 624.0,171.1 624.0,171.1 624.0,170.1 624.0,170.1 624.0,170.1 624.0,170.1 624.0,169.9 624.0,169.9 624.0,169.4 624.0,169.4 624.0,166.9 624.0,166.9 624.0,165.9 624.0,165.9 624.0,165.5 624.0,165.5 624.0,164.9 624.0,164.9 624.0,164.5 624.0,164.5 624.0,162.7 624.0,162.7 624.0,161.8 624.0,161.8 624.0,161.7 624.0,161.7 624.0,159.9 624.0,159.9 624.0,159.5 624.0,159.5 624.0,158.5 624.0,158.5 624.0,156.7 624.0,156.7 624.0,156.3 624.0,156.3" fill="none" stroke="#8e44ad" stroke-width="1.5"/>
<text x="64" y="42" fill="#8e44ad">|b_3(r)| (each nonzero r)</text>
</svg>